<?xml version="1.0" standalone="no"?>
<!DOCTYPE svg PUBLIC "-//W3C//DTD SVG 20010904//EN"
 "http://www.w3.org/TR/2001/REC-SVG-20010904/DTD/svg10.dtd">
<svg version="1.0" xmlns="http://www.w3.org/2000/svg"
 width="32px" height="32px" viewBox="0 0 256.000000 256.000000"
 preserveAspectRatio="xMidYMid meet">
<metadata>
Created by potrace 1.10, written by Peter Selinger 2001-2011
</metadata>
<g transform="translate(0.000000,256.000000) scale(0.050000,-0.050000)"
fill="#000000" stroke="none">
<path d="M2010 4996 c-44 -10 -125 -28 -180 -40 -1071 -232 -1758 -1169 -1720
-2346 12 -381 28 -483 131 -840 200 -696 959 -1399 1699 -1573 313 -74 860
-106 1012 -59 32 9 121 29 198 43 639 115 1279 616 1595 1249 658 1318 6 3010
-1325 3436 -239 77 -299 93 -420 113 -255 41 -440 29 -440 -28 0 -39 -14 -53
-65 -67 -64 -16 -112 -124 -55 -124 12 0 17 -9 11 -19 -22 -34 -73 1 -60 41
14 45 -4 47 -94 10 -37 -16 -120 -38 -185 -50 -64 -12 -174 -48 -243 -81 -69
-33 -151 -66 -182 -73 -75 -19 -200 -101 -287 -188 -39 -38 -126 -97 -195
-129 -69 -33 -125 -70 -125 -83 0 -13 -18 -28 -40 -34 -25 -6 -40 -27 -40 -54
0 -32 9 -41 32 -32 17 7 45 12 62 12 21 0 27 13 20 40 -8 32 -4 36 22 22 22
-12 39 -9 53 10 46 62 125 48 112 -20 -7 -37 21 -82 36 -57 20 33 52 7 98 -81
44 -82 39 -164 -9 -145 -21 8 -27 -3 -22 -44 3 -30 17 -53 30 -50 14 2 21 -7
17 -20 -28 -90 -31 -137 -9 -124 15 10 19 7 10 -8 -8 -13 -27 -23 -43 -23 -33
0 -39 -51 -9 -70 11 -7 20 -3 20 9 0 11 14 21 30 21 22 0 30 -23 30 -90 0 -49
9 -90 20 -90 30 0 24 -53 -9 -86 -24 -25 -24 -36 1 -85 16 -31 25 -68 19 -83
-5 -14 -1 -26 10 -26 10 0 19 10 19 21 0 12 9 16 20 9 11 -7 20 2 20 19 0 40
38 40 53 0 7 -18 -4 -43 -25 -60 -35 -27 -34 -28 16 -10 38 14 59 13 69 -4 8
-12 3 -26 -9 -30 -13 -5 -24 -21 -24 -37 0 -15 -8 -28 -18 -28 -28 0 -44 -60
-25 -93 24 -44 130 84 117 142 -13 52 -54 171 -76 215 -25 50 93 108 135 66
25 -25 25 -37 -3 -89 -30 -58 -29 -61 9 -61 23 0 41 -9 41 -20 0 -11 18 -20
40 -20 56 0 50 37 -10 60 -88 34 -59 86 33 59 54 -15 59 -13 53 27 -4 33 -17
42 -51 38 -28 -4 -68 16 -110 55 -52 48 -58 61 -28 61 30 0 26 10 -24 60 -33
33 -76 60 -96 59 -33 0 -34 -3 -5 -25 17 -13 28 -36 23 -50 -5 -15 5 -42 23
-61 35 -40 10 -83 -49 -83 -20 0 -32 -16 -31 -43 1 -24 -8 -46 -20 -51 -29
-10 -11 98 20 118 14 10 9 24 -16 42 -21 15 -33 37 -26 47 6 11 3 55 -8 98
-31 128 -39 284 -17 341 14 39 12 67 -8 109 -28 55 -28 56 20 38 70 -27 71
-26 38 40 -42 80 -42 135 -1 101 17 -14 30 -36 30 -49 0 -28 99 -79 117 -61 7
7 3 18 -8 26 -32 23 -72 153 -49 161 11 3 21 26 22 50 1 35 6 31 30 -22 32
-74 79 -90 61 -20 -7 25 -13 52 -13 61 0 9 -8 12 -17 6 -20 -13 -46 146 -29
174 14 24 45 -26 46 -73 0 -43 69 -137 87 -119 7 7 13 26 13 43 0 16 -6 24
-13 17 -7 -8 -25 10 -40 39 -34 65 -34 67 4 67 17 0 28 14 25 32 -3 18 10 43
30 55 48 31 77 -15 52 -82 -25 -66 -23 -74 12 -45 17 14 30 56 30 95 0 64 4
68 50 57 43 -11 50 -6 50 34 0 49 67 94 136 94 28 -1 29 -4 5 -19 -25 -15 -25
-26 -1 -75 21 -45 28 -49 35 -21 4 19 16 35 26 35 11 0 19 14 19 31 0 17 9 26
20 19 11 -7 21 12 21 44 1 53 2 54 20 11 18 -45 59 -62 59 -25 0 18 94 8 118
-13 5 -4 -8 -41 -28 -82 -20 -41 -42 -87 -49 -103 -7 -15 -18 -24 -25 -20 -7
5 -37 -14 -67 -42 l-55 -50 13 50 c7 28 13 57 13 65 0 8 13 15 29 15 18 0 25
12 18 30 -6 17 -1 30 11 30 12 0 22 -11 22 -24 0 -19 5 -19 24 0 18 18 18 30
1 47 -34 34 -86 4 -111 -63 -21 -56 -71 -74 -59 -21 4 13 -3 18 -15 11 -31
-19 -24 -90 10 -90 17 0 30 -18 30 -40 0 -22 -8 -40 -18 -40 -10 0 -28 -29
-41 -65 -20 -57 -26 -61 -43 -30 -26 46 -58 26 -58 -36 0 -27 -18 -67 -40 -89
-33 -33 -35 -40 -8 -40 21 0 28 -11 20 -32 -7 -17 -12 -36 -12 -42 0 -6 -17
11 -38 37 -49 59 -67 43 -43 -39 21 -75 10 -80 -42 -21 -20 24 -37 37 -37 29
0 -18 86 -140 105 -149 8 -3 10 -15 4 -25 -6 -10 3 -18 20 -18 24 0 29 -12 19
-50 -7 -30 -2 -63 13 -81 41 -50 81 69 67 196 -10 90 -8 100 18 78 24 -20 32
-19 40 1 6 14 12 -1 13 -34 l2 -60 39 50 c41 52 50 82 25 78 -8 -2 -26 -2 -40
0 -34 3 -25 122 9 122 17 0 22 20 14 65 -10 62 -9 63 21 26 30 -38 31 -38 31
8 0 26 16 59 35 73 48 37 66 34 54 -7 -5 -19 5 -3 23 35 17 39 44 84 59 101
36 40 56 156 57 324 1 131 22 161 35 49 l7 -57 83 72 c83 71 178 90 211 42 9
-13 26 -6 46 19 31 38 32 35 24 -56 -11 -109 24 -121 51 -18 9 35 24 64 33 64
37 0 -32 -167 -75 -183 -43 -16 -54 -39 -31 -63 30 -29 106 52 118 127 14 83
50 109 50 37 0 -36 5 -39 30 -18 17 14 30 44 30 66 0 41 1 41 29 3 15 -22 20
-42 10 -46 -35 -12 -19 -58 25 -70 40 -10 37 -18 -55 -117 -109 -118 -142
-140 -122 -84 8 23 -6 15 -37 -22 -74 -89 -62 -120 23 -61 23 16 47 24 54 17
7 -7 32 5 55 26 23 21 46 35 51 32 29 -20 140 119 120 151 -6 10 6 43 26 73
34 53 38 54 58 19 12 -20 22 -26 22 -12 1 14 9 25 19 25 32 0 40 -56 16 -108
-24 -52 -54 -69 -54 -32 0 11 -10 20 -22 20 -17 0 -17 -7 0 -28 32 -38 -81
-135 -215 -183 -57 -20 -103 -44 -103 -53 0 -23 35 -20 50 4 20 32 50 3 37
-36 -5 -19 9 -9 33 21 24 30 58 54 77 53 20 -1 24 -5 8 -11 -14 -6 -25 -24
-25 -40 0 -32 66 -21 119 20 22 18 25 17 14 -2 -21 -34 16 -32 45 2 13 16 44
23 74 17 29 -5 59 1 67 14 87 142 222 240 181 132 -12 -30 -11 -53 1 -60 31
-20 22 -87 -16 -108 -19 -10 -27 -26 -18 -35 10 -10 58 28 107 83 l90 100 -9
-66 c-6 -45 -2 -59 12 -45 37 37 52 22 40 -40 -12 -57 -9 -60 38 -49 62 16 87
-33 34 -66 -32 -20 -36 -18 -25 11 7 21 -9 12 -42 -22 -93 -98 -56 -123 62
-43 112 75 126 81 126 50 0 -11 -13 -20 -29 -20 -16 0 -40 -16 -55 -35 -48
-65 -172 -145 -205 -133 -33 13 -42 -24 -15 -66 24 -38 126 23 190 115 57 79
94 101 94 54 0 -14 -18 -37 -41 -51 -22 -14 -36 -33 -30 -42 6 -10 -8 -41 -32
-71 -42 -54 -36 -98 7 -55 13 13 38 24 55 25 17 0 62 27 100 60 77 65 126 80
74 22 -18 -20 -27 -42 -20 -50 8 -7 -24 -29 -69 -48 -81 -34 -110 -66 -59 -64
31 2 212 76 188 78 -35 2 33 61 70 61 31 0 35 -7 18 -38 -16 -31 -12 -40 24
-50 69 -19 -6 -55 -150 -70 -32 -4 -13 -62 20 -62 27 1 29 5 8 17 -18 12 -2
21 50 29 43 6 98 16 124 22 48 11 48 10 11 -34 -21 -24 -40 -48 -42 -52 -3 -4
-17 3 -32 15 -22 18 -36 14 -61 -13 -31 -35 -28 -37 62 -33 104 4 145 -6 145
-33 0 -10 -11 -18 -25 -18 -26 -1 -115 -85 -115 -110 0 -8 22 0 49 18 27 17
61 31 75 31 18 -1 16 -6 -4 -15 -16 -8 -54 -30 -84 -51 -62 -42 -279 -54 -292
-16 -14 42 -224 -30 -224 -76 0 -32 35 -42 46 -13 13 32 134 79 134 51 0 -10
14 -19 30 -19 17 0 30 -18 30 -41 0 -23 -9 -36 -20 -29 -10 6 -44 -2 -75 -18
-39 -22 -45 -31 -20 -31 49 -1 44 -18 -19 -67 -53 -42 -70 -49 -165 -62 -27
-3 -53 -18 -58 -32 -5 -17 1 -20 19 -10 17 10 21 9 11 -2 -9 -10 -22 -19 -30
-20 -22 -2 -131 -47 -168 -68 -64 -37 -95 25 -42 83 18 20 25 37 15 37 -30 0
-145 -131 -168 -189 -11 -29 -29 -48 -41 -41 -11 8 -56 -25 -99 -72 -49 -54
-99 -88 -134 -92 -59 -7 -49 7 47 67 20 12 30 30 21 39 -9 9 -24 5 -33 -10
-12 -19 -20 -20 -30 -3 -8 12 -4 36 10 52 17 20 17 29 1 29 -12 0 -22 -9 -22
-20 0 -10 -22 -25 -50 -32 -27 -7 -44 -21 -38 -31 7 -11 23 -9 40 4 36 31 35
11 -3 -64 -18 -33 -27 -66 -21 -72 7 -6 2 -23 -9 -37 -16 -19 -12 -22 20 -14
22 6 36 18 31 26 -5 9 4 21 20 27 17 7 30 4 30 -6 0 -10 25 -6 55 10 69 36 85
36 85 1 0 -33 -43 -52 -117 -52 -38 -1 -45 -6 -25 -18 15 -10 21 -27 14 -40
-16 -24 42 -8 83 24 43 33 47 4 6 -41 l-39 -41 84 4 c61 3 84 13 84 36 0 18
23 51 50 74 l50 42 -60 -30 c-70 -35 -110 -38 -110 -10 0 11 11 18 25 15 15
-3 23 12 19 39 -5 33 6 48 43 57 54 14 86 89 47 113 -15 10 -16 15 -2 16 12 0
32 20 44 45 21 41 22 40 11 -15 l-13 -60 57 50 c32 28 69 61 85 75 38 35 55
31 55 -13 0 -22 -10 -33 -24 -28 -14 5 -47 -11 -73 -37 -27 -26 -66 -59 -86
-73 -34 -23 -33 -24 17 -14 39 7 54 3 50 -15 -3 -14 12 -24 35 -22 39 3 39 2
2 -20 -70 -42 -121 -100 -96 -108 13 -5 62 31 109 80 47 48 114 101 150 116
67 30 89 79 34 79 -19 0 -26 -10 -17 -25 10 -18 6 -17 -14 1 -31 29 20 84 77
84 16 0 24 11 19 25 -16 47 27 99 73 88 23 -6 70 2 103 16 l60 26 -50 21 -50
21 60 5 c33 2 78 5 100 7 22 1 73 18 114 37 41 19 93 34 115 34 37 0 50 20 43
65 -2 16 58 29 153 32 36 1 65 -7 65 -18 0 -10 -9 -19 -20 -19 -11 0 -20 -14
-20 -32 0 -20 11 -28 30 -21 17 7 30 4 30 -6 0 -10 -11 -22 -25 -28 -14 -5 -7
-11 15 -12 39 -2 39 -3 1 -32 -38 -28 -38 -29 5 -29 112 0 16 -75 -101 -79
-127 -4 -134 -6 -146 -49 -7 -23 -36 -62 -66 -87 l-53 -45 55 0 c30 0 55 9 55
20 0 11 19 20 42 20 23 0 38 -10 33 -24 -11 -34 -115 -58 -157 -35 -19 10 -46
19 -58 19 -34 0 -12 -50 22 -51 15 0 26 -12 23 -25 -4 -17 11 -21 45 -12 55
14 64 -1 25 -41 -14 -14 -38 -45 -54 -69 -29 -41 -75 -62 -51 -22 7 11 2 20
-11 20 -13 0 -19 11 -14 25 7 18 -18 26 -83 28 -50 2 -76 -1 -57 -7 19 -5 35
-22 35 -38 0 -16 19 -36 41 -45 23 -8 42 -23 42 -32 1 -51 -157 -71 -175 -22
-9 22 -44 28 -150 25 -129 -4 -181 -23 -104 -38 88 -17 -38 -81 -141 -71 -111
11 -178 -1 -162 -27 7 -10 35 -12 63 -5 36 9 48 6 38 -10 -10 -16 10 -23 62
-24 64 0 70 -4 39 -22 -31 -18 -33 -25 -10 -41 20 -14 15 -17 -18 -10 -48 11
-79 -15 -45 -36 49 -30 134 10 129 61 -5 41 3 49 45 49 43 0 47 5 26 30 -21
26 -16 30 36 30 74 0 103 34 39 45 -44 7 -44 8 8 34 47 23 65 21 146 -18 110
-54 339 -26 261 32 -35 25 -34 27 16 27 30 0 54 9 54 20 0 11 41 20 91 20 127
0 147 -54 39 -110 -12 -6 -10 -15 5 -22 44 -20 26 -49 -23 -37 -60 15 -151
-27 -111 -52 15 -9 37 -11 48 -5 12 7 9 -1 -5 -16 -17 -18 -63 -27 -130 -25
-72 3 -92 -2 -64 -13 22 -10 31 -18 20 -19 -11 -1 9 -16 43 -33 75 -37 219 11
198 66 -6 15 1 26 14 24 14 -3 40 2 58 10 18 8 85 6 150 -4 89 -13 108 -21 77
-34 -22 -9 -70 -28 -107 -43 -58 -23 -64 -32 -42 -58 22 -27 15 -29 -63 -20
-48 5 -72 5 -53 -1 19 -6 35 -20 35 -32 0 -13 28 -16 75 -8 l75 13 -50 -40
c-27 -22 -61 -40 -75 -41 -13 0 -36 -18 -50 -40 -13 -22 -40 -40 -59 -40 -18
0 -39 -9 -46 -20 -7 -11 -43 -20 -80 -20 -38 0 -92 -11 -122 -25 l-54 -24 47
-11 c25 -6 50 -23 55 -38 6 -17 0 -22 -15 -13 -13 8 -56 9 -96 1 -54 -10 -65
-18 -44 -31 21 -13 10 -18 -37 -19 -39 0 -61 8 -54 20 16 25 -125 24 -180 -2
-29 -14 -18 -16 44 -8 83 10 129 -13 82 -43 -31 -19 -376 -22 -364 -4 5 8 -3
18 -17 23 -15 6 -5 18 25 32 49 22 49 23 -10 12 -43 -8 -52 -6 -31 8 45 30 16
44 -97 46 -97 3 -100 4 -66 37 65 60 175 90 234 63 64 -29 123 -31 140 -4 7
12 6 20 -4 18 -56 -10 -96 5 -56 21 22 8 54 11 70 5 22 -7 24 -4 9 14 -25 26
-309 8 -309 -21 0 -25 -135 -21 -144 4 -5 15 -23 15 -60 1 -65 -24 -57 -101
11 -104 26 -1 12 -10 -34 -22 -48 -13 -93 -14 -120 -2 -60 26 -117 10 -109
-30 5 -26 54 -41 216 -67 120 -19 307 -68 437 -115 249 -90 280 -97 243 -52
-20 25 -19 30 8 30 17 0 32 10 32 21 0 12 -7 17 -15 13 -8 -5 -33 -2 -55 7
-32 13 -27 17 30 20 39 2 97 7 130 12 33 4 118 13 189 20 127 11 128 11 83 45
l-45 35 85 25 c46 14 97 38 113 54 15 15 47 28 71 29 24 0 70 27 102 60 74 75
176 84 165 15 -5 -30 -27 -50 -70 -61 -35 -9 -63 -21 -63 -27 0 -6 17 -5 38 1
46 15 79 -26 41 -50 -15 -9 -34 -12 -43 -6 -44 27 -55 -21 -14 -65 45 -48 40
-91 -7 -54 -33 26 -121 19 -131 -11 -4 -13 -30 -23 -57 -23 -28 0 -44 -9 -37
-20 7 -11 -4 -21 -24 -22 -20 0 -25 -5 -12 -11 13 -5 50 5 84 22 33 17 94 30
136 28 53 -2 61 -5 28 -12 -39 -7 -43 -13 -20 -28 19 -14 5 -16 -47 -8 -59 10
-75 6 -75 -17 0 -20 -30 -33 -95 -42 -52 -7 -112 -21 -132 -32 -20 -11 -82
-24 -138 -29 -56 -5 -105 -13 -110 -18 -13 -12 132 -71 161 -66 30 6 71 42 64
55 -4 6 28 7 71 3 80 -7 168 42 114 64 -36 14 87 15 141 0 65 -17 44 -53 -42
-74 -64 -15 -71 -22 -53 -55 16 -30 14 -38 -11 -38 -18 0 -27 9 -20 20 7 11
-10 20 -40 20 -34 0 -47 -8 -38 -23 10 -17 -9 -20 -70 -12 -109 15 -84 -20 76
-106 61 -33 129 -84 150 -112 l37 -51 -47 15 c-27 9 -68 14 -92 13 -34 -3 -41
5 -32 30 8 19 5 28 -7 20 -11 -6 -32 6 -48 27 -33 46 -52 50 -52 10 0 -16 9
-27 21 -25 12 2 20 -8 17 -22 -4 -15 3 -21 15 -14 11 7 20 -2 20 -19 0 -17
-13 -31 -30 -31 -16 0 -30 -8 -30 -18 0 -10 18 -14 39 -8 22 6 54 -4 72 -22
29 -29 28 -32 -15 -34 -25 0 -35 -6 -21 -11 49 -20 23 -44 -70 -64 -66 -14
-98 -14 -108 2 -7 11 -39 24 -70 26 -31 3 -77 10 -102 16 -24 6 -49 2 -55 -8
-12 -18 15 -26 154 -48 40 -7 78 -23 85 -37 8 -19 14 -18 23 1 15 33 49 31 98
-8 38 -31 38 -31 -21 -21 -76 14 -104 -3 -99 -61 2 -25 -4 -45 -13 -45 -10 0
-17 -18 -17 -40 0 -47 -56 -54 -73 -10 -6 17 -20 30 -31 30 -11 0 -14 -16 -6
-35 30 -77 31 -125 1 -125 -16 0 -37 -14 -47 -31 -14 -26 -30 -15 -86 59 -37
50 -83 91 -102 91 -46 1 -66 39 -28 53 138 53 -668 768 -866 768 -58 0 -172
74 -281 184 -85 84 -161 101 -161 36 0 -27 20 -48 55 -61 69 -24 150 -69 261
-142 47 -31 106 -57 130 -57 36 -1 38 -4 14 -20 -49 -33 47 -77 130 -61 11 3
13 -2 5 -10 -8 -8 1 -27 20 -41 19 -15 24 -27 11 -27 -13 -1 -37 12 -53 29
-17 16 -37 30 -45 30 -33 0 90 -109 222 -197 179 -118 444 -380 570 -563 27
-38 60 -82 74 -96 34 -35 35 -100 1 -89 -8 3 -15 -5 -15 -17 0 -14 -19 -17
-51 -9 -48 11 -51 8 -42 -46 11 -70 -86 -103 -132 -46 -21 26 -19 28 15 16 27
-10 19 4 -25 45 -74 68 -93 140 -26 98 22 -14 45 -19 52 -12 18 18 -72 133
-115 147 -20 6 -36 19 -36 27 0 20 -200 189 -210 178 -5 -4 32 -66 81 -137 49
-71 89 -141 89 -156 0 -16 12 -23 31 -15 19 7 26 3 18 -9 -7 -11 16 -80 51
-152 86 -178 76 -181 -117 -35 -4 3 -10 32 -12 63 -4 52 -28 112 -124 315 -43
92 -196 289 -260 335 -31 22 -79 69 -107 103 l-50 62 56 -36 57 -37 -34 52
c-18 28 -44 51 -56 52 -13 0 -49 22 -81 48 l-57 47 59 -5 c80 -6 95 -17 184
-138 142 -192 298 -332 557 -499 47 -30 85 -63 85 -74 0 -11 18 -20 40 -20 26
0 40 -13 40 -38 0 -34 54 -75 73 -55 26 25 -487 593 -537 593 -8 0 -66 43
-130 95 -201 165 -256 201 -347 225 -49 13 -111 40 -139 59 -27 20 -70 42 -95
50 -41 12 -54 34 -47 76 2 15 -58 23 -125 16 -23 -3 -32 4 -24 18 17 28 -169
113 -187 86 -11 -17 -63 -24 -200 -28 -26 0 -55 11 -64 25 -8 15 -22 20 -31
12 -8 -8 -4 -25 9 -38 32 -32 31 -96 -2 -96 -14 0 -38 18 -54 40 -33 46 -60
52 -60 14 0 -15 27 -46 60 -71 33 -24 60 -36 60 -25 0 10 17 14 38 8 21 -5 43
0 50 11 9 15 30 15 65 2 48 -19 51 -17 39 31 -8 32 -4 50 11 50 13 0 19 -5 12
-11 -6 -6 11 -33 38 -60 54 -54 118 -67 100 -20 -13 34 41 97 69 80 10 -7 15
-18 10 -26 -5 -8 8 -36 29 -64 33 -42 38 -44 39 -12 0 28 7 32 25 18 14 -11
48 -27 75 -35 28 -9 78 -37 112 -63 34 -26 73 -47 87 -47 14 0 20 -13 15 -28
-12 -30 46 -92 122 -131 27 -14 44 -38 40 -57 -4 -19 10 -52 30 -74 50 -53
214 -265 214 -276 0 -5 59 -109 130 -232 72 -124 130 -233 130 -243 0 -10 8
-19 17 -19 21 0 87 -223 71 -239 -6 -6 -30 15 -52 46 -26 35 -47 48 -55 34
-15 -24 -121 61 -121 98 0 38 64 22 74 -19 6 -22 20 -40 31 -40 11 0 14 22 6
54 -18 71 -110 226 -134 226 -11 0 -14 9 -7 19 12 20 -46 146 -109 240 -19 28
-74 110 -122 181 -48 72 -108 152 -133 180 -25 27 -46 56 -46 64 0 7 -27 30
-60 49 -33 20 -60 47 -60 60 0 43 -103 107 -173 107 -37 0 -67 8 -67 17 0 10
-22 13 -50 8 -56 -11 -70 -84 -23 -123 16 -13 32 -79 38 -154 6 -72 21 -142
33 -154 12 -12 22 -40 22 -61 0 -22 5 -34 12 -28 6 7 -3 81 -20 166 -37 179
-38 195 -13 179 11 -6 27 17 36 52 16 62 17 63 54 27 20 -21 50 -40 67 -42 62
-9 133 -83 229 -238 54 -87 115 -177 134 -199 20 -22 31 -53 26 -68 -6 -15 -1
-22 10 -15 12 7 26 -1 33 -18 6 -18 3 -26 -8 -19 -11 7 -20 7 -20 0 0 -21 89
-180 105 -187 8 -3 15 -19 15 -35 0 -15 8 -28 17 -28 9 0 16 -27 16 -60 0 -33
14 -75 30 -95 40 -46 83 -287 57 -313 -13 -13 -20 -10 -20 8 0 41 -107 260
-128 260 -67 0 -126 197 -69 232 15 9 18 5 7 -12 -11 -17 -8 -21 7 -12 50 31
-69 208 -157 232 -77 21 -107 68 -55 85 18 6 15 18 -10 43 -19 19 -35 45 -35
57 0 16 7 16 24 -1 40 -40 56 -27 32 26 -12 28 -30 50 -39 50 -8 0 -11 11 -6
25 12 32 -98 155 -138 155 -32 0 -14 -105 33 -190 12 -22 23 -49 24 -60 1 -11
12 -42 24 -70 13 -27 39 -102 57 -165 20 -66 43 -109 55 -101 11 7 14 2 6 -11
-8 -12 -5 -39 6 -58 18 -31 21 -29 22 15 0 40 5 44 20 20 11 -16 20 -21 20
-10 0 11 9 7 20 -10 24 -38 26 -146 2 -131 -40 24 -34 -45 13 -149 122 -272
132 -301 95 -287 -44 17 -186 348 -282 657 -31 100 -60 163 -64 142 -4 -20 1
-56 12 -80 11 -23 40 -127 64 -232 24 -104 56 -226 71 -270 35 -105 51 -246
29 -260 -42 -26 -154 -24 -196 3 -37 23 -53 25 -76 5 -16 -13 -34 -18 -41 -12
-7 7 -42 0 -79 -16 -76 -31 -114 -10 -150 84 -38 101 21 122 101 37 49 -52 92
-49 72 3 -8 21 -2 27 17 19 40 -15 52 30 38 147 -7 64 -20 97 -34 91 -12 -6
-37 -16 -56 -23 -21 -8 -33 -33 -32 -71 3 -79 -29 -109 -71 -67 -38 38 -41 67
-12 142 13 35 14 61 1 74 -28 28 -102 -102 -102 -180 0 -86 -31 -99 -63 -26
-32 72 -57 78 -57 12 0 -76 21 -112 65 -112 33 0 36 -5 15 -30 -28 -33 -120
-41 -120 -10 0 11 -41 20 -91 20 -56 0 -87 8 -79 20 12 19 -40 30 -115 23 -19
-1 -35 4 -35 12 0 8 -32 17 -72 19 -67 3 -132 51 -154 113 -7 17 -21 16 -53
-3 -56 -33 -69 -23 -33 26 32 44 156 15 236 -54 64 -55 145 -49 126 9 -7 25
-15 61 -16 80 -3 40 -27 47 -39 11 -14 -42 -81 0 -69 44 13 51 -28 52 -64 3
-34 -48 -100 -19 -218 96 -44 42 -99 83 -122 90 -23 8 -42 26 -42 41 0 16 -16
37 -35 48 -30 17 -31 26 -9 63 15 24 18 38 8 31 -34 -20 -42 40 -16 115 28 81
45 103 79 103 12 0 23 14 24 30 1 30 16 74 51 150 11 25 11 63 -1 100 -17 52
-19 53 -15 10 5 -65 -76 -159 -126 -146 -23 6 -61 -13 -101 -52 -77 -74 -99
-78 -84 -17 21 84 129 215 177 215 25 0 55 16 66 35 12 19 21 26 21 15 2 -35
81 109 81 146 0 19 14 55 31 80 32 46 22 95 -15 72 -11 -7 -37 -51 -58 -98
-26 -58 -59 -96 -105 -117 -37 -18 -79 -46 -93 -62 -14 -18 -42 -26 -67 -20
-32 8 -62 -8 -112 -60 -79 -81 -101 -88 -101 -30 0 77 -37 122 -81 99 -50 -27
-51 -68 0 -55 27 7 35 2 27 -17 -5 -16 -18 -28 -28 -28 -10 0 -18 -18 -18 -40
0 -22 13 -40 30 -40 17 0 30 -13 30 -30 0 -50 60 -34 130 35 36 36 84 66 106
66 l42 2 -40 -56 c-22 -30 -66 -74 -99 -98 -73 -52 -73 -72 2 -155 64 -70 99
-69 99 2 1 60 24 92 74 99 23 4 58 20 77 36 33 27 35 25 21 -30 -15 -59 -87
-175 -116 -188 -23 -9 -20 -83 4 -83 11 0 20 -15 20 -32 0 -23 -12 -29 -39
-22 -31 8 -51 -10 -91 -78 -83 -141 -134 -101 -62 49 36 74 37 88 12 103 -17
9 -61 45 -99 79 l-69 61 -29 -65 c-16 -36 -28 -72 -26 -80 2 -8 -10 -15 -26
-15 -37 0 -65 45 -35 55 13 5 24 18 24 30 0 12 -18 5 -40 -15 -61 -55 -66 -25
-10 58 59 87 59 89 11 147 -47 57 -60 56 -118 -5 -26 -28 -55 -50 -65 -50 -35
0 -17 54 32 100 43 41 46 51 20 65 -16 9 -30 26 -30 37 0 12 -11 33 -25 49
-64 71 -86 104 -187 274 -132 224 -320 810 -210 655 21 -30 36 35 21 90 -13
47 5 322 22 339 26 26 24 57 -2 40 -33 -20 -19 227 20 331 22 61 28 113 19
160 -8 38 -11 74 -6 78 4 5 8 -4 9 -20 0 -15 18 10 40 57 26 56 53 85 78 85
28 0 35 10 26 43 -10 39 -13 40 -36 9 -21 -29 -26 -29 -36 -3 -6 16 2 37 18
47 17 9 35 42 41 74 15 83 40 120 82 120 25 0 34 12 29 39 -4 21 6 48 21 60
16 12 46 50 67 86 20 36 49 65 63 65 13 0 20 12 14 27 -6 15 4 33 21 40 17 6
31 26 31 42 0 17 8 31 19 31 10 0 21 20 25 45 3 27 22 47 47 51 22 3 49 24 60
48 10 23 28 41 39 41 39 -1 130 78 117 102 -8 15 -4 15 14 -2 35 -32 60 -32
48 1 -9 23 118 88 155 78 7 -2 10 15 6 36 -7 37 42 55 116 42 10 -2 12 5 6 15
-17 27 29 58 98 68 33 5 93 24 134 42 41 18 86 33 100 33 18 1 17 6 -4 20 -22
14 -1 19 73 20 57 0 107 8 110 18 4 11 57 23 117 28 61 5 124 14 140 20 17 6
91 16 165 23 231 21 265 58 72 78 -158 17 -306 13 -407 -11z m1610 -336 c0
-20 11 -41 25 -47 16 -6 12 -10 -8 -11 -20 -1 -43 -30 -56 -70 -32 -96 -74
-129 -108 -83 -23 31 -27 32 -52 3 -14 -18 -44 -32 -66 -32 -37 0 -36 5 14 51
51 47 58 49 101 21 52 -34 69 -4 70 119 0 63 34 115 63 97 9 -6 17 -27 17 -48z
m-1933 -231 c-5 -13 -20 -24 -33 -23 -80 2 -89 -7 -99 -106 -11 -120 -26 -140
-64 -89 -27 35 -29 30 -22 -64 7 -114 -19 -126 -78 -36 -40 62 -39 69 9 69 47
0 53 31 10 47 -41 16 -37 53 12 112 34 40 44 44 59 20 12 -20 18 -21 19 -4 0
52 65 101 131 99 41 -1 61 -10 56 -25z m2544 -248 c67 25 62 -4 -10 -57 l-58
-43 2 64 c1 36 5 54 10 41 5 -17 22 -19 56 -5z m438 -559 c24 -39 -15 -78 -85
-87 -87 -11 -89 -10 -73 30 20 52 135 94 158 57z m-282 -141 c29 -29 -69 -104
-102 -77 -13 11 -20 29 -14 38 6 10 1 18 -12 18 -18 0 -18 7 0 29 25 30 94 26
128 -8z m440 -365 c14 -9 10 -27 -13 -51 -19 -21 -28 -44 -21 -52 8 -7 -2 -13
-20 -13 -33 0 -77 -75 -84 -145 -2 -23 4 -29 19 -18 12 10 36 18 52 19 17 2
55 8 85 16 56 13 73 -14 40 -65 -16 -24 -187 -47 -172 -22 5 8 -3 15 -17 15
-15 0 -40 18 -56 40 -16 22 -52 41 -79 42 -28 0 -39 6 -25 12 32 13 -6 66 -48
66 -16 0 -28 9 -28 20 0 11 27 20 61 20 33 0 96 18 140 40 83 43 107 84 39 66
-64 -17 -46 13 25 43 48 21 67 22 73 4 4 -12 18 -29 29 -37z m-1111 -131 c4
-28 -4 -40 -24 -37 -45 6 -59 26 -44 63 16 43 60 27 68 -26z m-306 -64 c-32
-62 -69 -73 -85 -25 -5 13 4 24 19 24 15 0 40 18 56 39 41 58 48 34 10 -38z
m1456 -193 c28 -28 -125 -107 -209 -108 -24 0 -7 70 23 94 31 26 164 35 186
14z m14 -243 c0 -36 -83 -68 -113 -43 -17 15 -21 29 -9 37 30 18 122 23 122 6z
m-3600 -1665 c0 25 119 -97 120 -123 0 -6 27 -23 60 -37 47 -19 60 -37 60 -82
0 -62 -47 -81 -67 -28 -7 17 -28 30 -49 30 -20 0 -54 18 -76 40 -21 22 -55 58
-77 80 -29 30 -32 40 -10 40 17 0 21 7 9 15 -11 8 -23 33 -27 54 -6 33 -2 35
25 12 25 -20 32 -20 32 -1z"/>
<path d="M2845 4762 c7 -27 2 -36 -17 -28 -18 6 -29 -4 -30 -27 -1 -20 -5 -62
-10 -92 -7 -42 -3 -52 21 -42 45 17 38 -25 -11 -71 -24 -22 -36 -49 -28 -63 9
-13 7 -29 -3 -36 -39 -27 -110 -145 -102 -168 5 -14 19 -4 34 25 14 28 72 93
128 147 92 86 98 114 8 37 -19 -17 -35 -23 -35 -14 0 10 29 42 65 73 59 51 62
59 30 78 -33 20 -32 23 5 64 22 23 40 66 40 94 -1 40 -5 45 -20 21 -11 -16
-20 -20 -20 -7 0 12 -15 28 -32 35 -25 10 -30 3 -23 -26z"/>
<path d="M3140 4704 c0 -8 -34 -36 -75 -64 -95 -63 -190 -184 -100 -126 14 8
34 16 45 16 11 0 29 20 40 45 12 29 31 41 53 34 61 -19 126 76 67 98 -16 7
-30 5 -30 -3z"/>
<path d="M2653 4599 c-21 -30 -31 -34 -38 -15 -7 17 -17 19 -30 6 -36 -35 6
-109 54 -96 45 12 101 79 101 120 0 40 -55 30 -87 -15z"/>
<path d="M2140 4424 c0 -35 8 -64 19 -64 37 0 43 41 12 84 -31 45 -31 45 -31
-20z"/>
<path d="M2889 4397 c-43 -46 -68 -77 -54 -69 15 9 25 2 25 -17 0 -85 94 0
104 94 4 41 7 75 6 75 -1 0 -37 -37 -81 -83z"/>
<path d="M3685 4421 c-25 -21 -57 -42 -70 -46 -19 -7 -18 -16 3 -42 32 -39 72
-34 73 9 0 15 12 48 26 73 29 54 26 55 -32 6z"/>
<path d="M3462 4328 c-38 -27 -96 -48 -133 -48 -72 0 -88 -64 -20 -77 64 -12
190 21 134 35 -44 12 -42 15 35 58 45 26 82 55 82 65 0 28 -23 21 -98 -33z"/>
<path d="M3794 4324 c-30 -30 -93 -64 -139 -75 -84 -21 -85 -22 -37 -48 41
-22 52 -21 70 4 12 16 42 35 65 43 41 13 119 107 103 123 -5 4 -33 -17 -62
-47z"/>
<path d="M1989 4265 c7 -52 4 -85 -9 -85 -11 0 -19 -20 -18 -45 2 -34 5 -36
12 -10 5 19 22 35 37 35 39 0 38 102 -2 151 -30 37 -31 34 -20 -46z"/>
<path d="M2486 4216 c-31 -47 -78 -106 -104 -131 -27 -25 -43 -51 -37 -57 15
-15 145 112 161 157 7 19 27 35 43 35 34 0 42 51 12 70 -11 6 -45 -27 -75 -74z"/>
<path d="M3160 4276 c0 -12 -27 -15 -67 -8 -49 9 -75 4 -93 -19 -15 -17 -38
-26 -53 -21 -16 6 -27 -3 -27 -21 0 -26 -5 -27 -30 -7 -25 20 -30 19 -30 -9 0
-39 179 -34 227 7 18 14 42 12 81 -9 81 -42 111 -35 52 12 -27 22 -38 38 -22
35 44 -9 47 38 3 50 -23 5 -41 1 -41 -10z"/>
<path d="M2745 4201 c-38 -49 -40 -60 -16 -81 37 -30 73 -9 57 34 -10 24 -5
30 18 21 23 -9 35 2 41 36 13 68 -42 63 -100 -10z"/>
<path d="M2585 4148 c-36 -15 -65 -42 -65 -59 0 -34 32 -21 120 50 58 46 38
50 -55 9z"/>
<path d="M3457 4165 c20 -15 14 -22 -26 -30 -28 -5 -57 -2 -63 8 -6 9 -26 17
-44 17 -29 -1 -29 -3 -5 -19 41 -26 12 -48 -64 -50 -50 -1 -64 -9 -59 -36 3
-19 -5 -35 -18 -35 -14 0 -19 -5 -13 -12 6 -6 33 1 58 15 46 26 58 30 113 35
15 1 21 11 14 22 -7 12 13 20 48 20 33 0 84 11 112 24 42 19 56 18 69 -2 10
-16 32 -21 59 -13 72 23 47 51 -46 51 -49 0 -105 5 -125 12 -27 9 -30 7 -10
-7z"/>
<path d="M911 4030 c-28 -32 -51 -80 -51 -110 0 -49 -98 -211 -147 -243 -14
-9 -12 -24 4 -44 16 -19 18 -34 5 -42 -11 -7 -15 -25 -9 -42 8 -20 -2 -29 -31
-29 -49 0 -51 -6 -17 -63 20 -34 20 -44 0 -51 -14 -5 -25 -29 -25 -54 0 -24
-11 -55 -24 -68 -19 -19 -19 -29 0 -48 39 -39 28 -97 -27 -140 -51 -41 -55
-133 -8 -184 9 -9 4 -30 -12 -46 -34 -33 -38 -66 -9 -66 11 0 20 -13 20 -30 0
-16 -10 -30 -22 -30 -16 0 -17 -8 -3 -25 11 -14 26 -76 34 -139 7 -62 32 -161
54 -220 23 -58 46 -128 52 -156 6 -27 19 -61 30 -75 19 -24 27 -60 32 -159 2
-24 15 -55 29 -70 15 -14 25 -53 23 -86 -3 -33 4 -71 15 -83 10 -13 13 -55 5
-93 -7 -38 -4 -75 6 -81 27 -16 126 32 117 57 -4 11 7 36 24 55 27 32 25 39
-22 83 l-52 48 67 32 c37 18 81 32 98 32 40 0 133 93 133 132 0 23 -12 27 -45
17 -56 -17 -117 -69 -105 -90 12 -18 -111 -64 -128 -48 -6 6 1 19 16 28 17 10
23 34 16 61 -17 65 18 138 76 160 35 13 50 34 50 70 0 31 11 50 30 50 17 0 30
9 30 21 0 21 20 49 89 125 l40 43 25 -87 c13 -47 35 -99 48 -114 20 -24 18
-44 -6 -101 -4 -7 12 -16 34 -19 21 -3 42 -14 45 -24 24 -70 64 -93 64 -36 1
33 -14 75 -32 95 -18 21 -24 37 -13 37 31 0 58 -40 88 -130 14 -44 33 -89 42
-99 9 -10 16 -36 16 -56 0 -21 7 -33 16 -27 9 5 17 -20 18 -57 1 -36 18 -85
38 -108 59 -68 89 -220 61 -308 -23 -77 -87 -110 -67 -35 17 65 -17 46 -75
-42 -80 -121 -89 -199 -15 -124 31 30 35 30 40 1 8 -39 64 -24 64 17 0 88 119
13 130 -82 5 -45 36 -90 62 -90 38 0 36 89 -2 127 -16 17 -30 53 -30 80 0 27
-9 53 -21 57 -28 9 63 176 96 176 14 0 25 -9 25 -20 0 -11 29 -20 65 -20 177
2 174 3 121 -59 -25 -30 -38 -34 -50 -16 -10 16 -15 9 -16 -20 0 -57 35 -56
108 4 35 28 51 56 42 71 -27 44 65 -16 100 -65 31 -44 33 -44 61 -6 16 21 31
34 34 30 3 -5 22 -43 43 -84 42 -83 55 -89 91 -46 18 22 19 45 4 85 l-20 56
-3 -60 c-3 -52 -8 -45 -43 53 -26 75 -52 116 -78 123 -41 11 -54 -14 -19 -36
30 -18 24 -44 -12 -58 -24 -9 -29 -4 -20 19 7 18 3 26 -9 19 -11 -7 -29 14
-41 47 -11 33 -34 65 -49 71 -38 14 -37 -17 2 -57 18 -17 23 -31 12 -31 -12 0
-26 8 -32 19 -6 10 -36 15 -66 12 -30 -3 -61 4 -69 16 -10 16 -21 16 -39 -2
-32 -32 -63 -32 -52 0 8 24 -86 95 -126 95 -12 0 -42 22 -67 50 -25 27 -52 43
-59 36 -7 -7 -13 3 -13 22 0 19 9 29 20 22 11 -7 20 -2 20 11 0 13 14 18 30
12 39 -15 38 -8 -8 45 -27 30 -41 36 -47 18 -5 -14 -20 10 -35 54 -33 103
-191 350 -225 351 -48 1 -141 94 -129 127 14 35 87 44 97 12 4 -11 30 0 57 25
42 38 123 54 180 35 6 -1 35 -6 65 -10 30 -4 73 -20 95 -36 44 -31 -25 -53
-165 -54 -69 0 -76 -82 -14 -160 35 -44 42 -46 64 -19 14 17 70 65 125 106
139 105 193 218 120 246 -16 6 -30 25 -30 41 0 20 11 26 32 18 23 -9 29 -4 21
17 -6 17 1 37 16 45 24 14 24 22 -1 55 -15 21 -29 32 -30 25 -2 -8 -5 -23 -8
-34 -3 -11 -6 -25 -7 -31 -2 -6 -15 1 -30 15 -23 21 -23 29 0 52 28 28 107 16
107 -17 0 -16 102 -79 128 -79 21 0 -17 71 -57 107 -22 20 -38 49 -35 65 3 15
-2 28 -12 28 -43 0 -126 109 -116 151 11 44 -72 112 -101 82 -8 -7 1 -13 20
-13 50 0 44 -101 -7 -114 -48 -13 -51 -32 -9 -66 25 -22 26 -31 3 -58 -15 -18
-25 -45 -23 -62 1 -16 4 -41 6 -55 2 -14 17 -25 33 -25 28 0 40 -35 31 -97 -2
-15 16 -41 41 -59 l44 -31 -43 -16 c-57 -21 -111 -1 -84 32 72 87 -186 144
-298 66 -26 -18 -55 -29 -64 -23 -26 16 -20 -21 7 -48 32 -32 -9 -76 -47 -52
-15 9 -45 17 -67 17 -34 1 -39 13 -36 76 6 98 -11 95 -112 -24 -74 -89 -90
-99 -148 -90 -44 7 -52 5 -27 -7 35 -15 33 -21 -26 -80 -68 -68 -110 -89 -54
-27 41 45 42 63 3 63 -16 0 -30 9 -30 20 0 11 -16 21 -35 21 -27 1 -24 6 10
20 25 10 45 27 45 38 0 11 -14 15 -30 8 -17 -6 -44 0 -60 13 -36 30 -90 12
-90 -29 0 -42 -92 -41 -108 1 -19 49 -14 108 9 108 12 0 16 8 10 19 -6 10 -2
24 9 31 12 7 16 31 9 52 -8 25 6 60 40 100 52 63 60 91 39 146 -16 41 -56 41
-89 1 -38 -47 -65 -4 -36 59 17 37 18 59 3 74 -23 23 -11 181 15 198 8 6 19
38 25 72 12 80 45 141 89 166 27 15 30 25 11 43 -18 19 -17 31 5 53 16 16 29
59 29 95 0 38 12 71 28 77 18 7 23 30 17 65 -7 36 -3 50 11 42 40 -25 43 22 4
57 -81 73 -24 80 73 10 49 -36 75 -140 34 -140 -51 0 -28 -92 38 -151 36 -33
80 -81 98 -109 18 -27 38 -44 46 -38 14 15 -82 315 -114 353 -15 19 -13 23 9
15 23 -9 29 11 32 101 3 119 -51 157 -75 53 -15 -63 -49 -65 -58 -4 -11 81
-36 89 -92 30z m-39 -1681 c-6 -16 4 -36 22 -46 17 -10 25 -28 17 -41 -7 -12
-23 -17 -33 -11 -11 7 -31 3 -45 -8 -16 -14 -34 -14 -54 -1 -24 17 -22 25 16
51 25 18 45 49 45 71 0 22 9 33 21 25 12 -7 17 -25 11 -40z m37 -170 c-6 -11
4 -19 22 -19 26 0 21 -14 -24 -66 l-57 -65 -36 45 c-36 45 -36 47 20 94 52 45
101 52 75 11z"/>
<path d="M2900 4062 c0 -12 13 -22 28 -22 16 0 32 -10 36 -21 8 -25 76 -4 76
23 0 10 -17 18 -38 18 -21 0 -53 5 -70 12 -18 7 -32 2 -32 -10z"/>
<path d="M1313 4011 c-7 -18 -23 -27 -35 -20 -15 10 -15 0 2 -30 12 -24 26
-93 30 -152 3 -63 19 -121 37 -139 28 -28 30 -22 22 55 -15 147 -19 164 -37
192 -11 17 -8 33 8 43 17 11 19 26 5 50 -18 32 -20 32 -32 1z"/>
<path d="M3452 4010 c-25 -19 -47 -23 -62 -10 -14 12 -51 10 -101 -4 l-79 -24
120 -14 c93 -11 124 -8 136 14 9 15 31 28 50 28 19 0 48 9 64 20 23 15 16 19
-30 19 -33 0 -77 -13 -98 -29z"/>
<path d="M3553 3951 c-7 -18 5 -34 30 -42 29 -9 35 -19 19 -35 -15 -15 -35
-14 -69 5 -27 14 -67 19 -91 12 -49 -16 -37 -51 18 -51 21 0 43 -9 50 -20 23
-36 -184 -24 -221 14 -30 30 -36 30 -56 3 -23 -31 -73 -27 -96 8 -7 11 -94 21
-194 22 -159 1 -178 5 -158 32 19 26 18 27 -5 6 -35 -31 -128 -34 -109 -3 10
15 1 15 -29 -1 -23 -12 -42 -32 -42 -43 0 -11 -9 -15 -19 -8 -22 13 -155 -67
-203 -122 -37 -43 -107 -255 -128 -388 -8 -49 -26 -103 -40 -120 -44 -51 -57
-153 -21 -167 34 -13 43 -73 11 -73 -11 0 -20 -12 -20 -28 0 -15 -14 -39 -31
-53 -21 -17 -24 -32 -10 -46 12 -12 21 -35 21 -53 0 -63 104 -243 133 -231 16
6 24 2 17 -9 -7 -11 -3 -20 7 -20 25 0 83 57 83 80 0 9 14 31 31 49 28 27 28
31 2 31 -17 0 -36 -9 -43 -20 -7 -11 -26 -20 -43 -20 -26 0 -26 4 2 31 38 39
38 40 -3 88 -44 52 -69 33 -44 -34 l20 -54 -47 50 c-26 27 -44 59 -40 72 4 13
-1 28 -12 35 -10 7 -15 30 -9 52 6 22 19 34 30 27 12 -7 15 4 8 28 -18 57 36
99 76 59 39 -38 274 -82 364 -68 201 33 399 176 550 398 78 114 88 148 65 231
-13 51 -47 61 -47 15 0 -50 -27 -33 -96 61 -68 93 -52 117 37 54 27 -19 66
-31 87 -28 49 8 72 -31 58 -100 -10 -54 -9 -55 41 -31 74 34 88 78 17 53 -52
-18 -51 -16 14 40 40 35 63 70 56 87 -9 24 2 26 61 13 83 -19 105 -11 105 38
0 37 100 107 180 124 l50 11 -48 26 c-41 23 -52 23 -70 -2 -28 -36 -92 -61
-92 -35 0 10 -13 19 -30 19 -16 0 -30 14 -30 30 0 38 -32 39 -47 1z m-552
-233 c103 -39 181 -222 160 -375 -9 -69 -188 -262 -244 -263 -7 0 13 49 44
108 107 206 -11 452 -217 452 -88 0 -186 -72 -182 -134 3 -34 3 -34 12 0 17
67 95 34 102 -43 7 -67 6 -68 -65 -59 -135 15 -71 -173 93 -276 126 -79 129
-96 20 -110 -52 -6 -97 -5 -100 4 -4 9 -20 11 -35 5 -17 -7 -29 1 -29 16 0 15
-18 38 -40 52 -236 148 -107 599 178 619 61 4 120 16 130 26 20 20 84 11 173
-22z m-203 -305 c25 -31 8 -99 -20 -82 -10 7 -14 20 -8 29 6 9 2 23 -10 30
-25 15 -27 50 -2 50 9 0 27 -12 40 -27z"/>
<path d="M1820 3898 c0 -12 18 -26 39 -32 21 -6 43 -25 48 -43 6 -25 9 -23 11
8 2 46 -32 89 -72 89 -14 0 -26 -10 -26 -22z"/>
<path d="M4016 3886 c19 -7 20 -17 4 -36 -18 -21 -14 -25 19 -16 22 6 41 2 41
-8 0 -29 -59 -99 -59 -71 -1 33 -44 32 -92 -4 -29 -21 -33 -34 -16 -51 22 -23
39 -18 147 43 17 9 50 26 75 37 50 21 63 51 14 32 -18 -7 -36 2 -43 23 -16 43
-46 65 -86 63 -22 -1 -23 -4 -4 -12z"/>
<path d="M1637 3810 c79 -71 103 -83 103 -53 0 17 -147 123 -170 123 -5 0 25
-31 67 -70z"/>
<path d="M3789 3831 c-34 -26 -34 -30 -6 -30 52 -1 98 21 86 41 -16 25 -35 22
-80 -11z"/>
<path d="M1793 3784 c-17 -26 5 -84 31 -84 11 0 15 -11 10 -25 -11 -31 21 -95
47 -95 10 0 19 14 19 30 0 17 -10 30 -22 30 -17 0 -16 8 1 28 18 22 17 32 -5
45 -15 10 -37 34 -48 55 -12 22 -26 29 -33 16z"/>
<path d="M3811 3770 c-21 -16 -33 -35 -27 -41 21 -20 116 15 116 43 0 36 -39
35 -89 -2z"/>
<path d="M4237 3730 c-5 -5 -27 -12 -48 -17 -22 -4 -55 -14 -74 -22 -19 -8
-49 -10 -66 -3 -18 6 -26 3 -19 -8 7 -11 -11 -20 -40 -20 -164 0 -393 -227
-323 -320 20 -26 18 -26 -9 -5 -26 21 -36 21 -52 0 -54 -69 -50 -77 25 -46 40
17 77 31 80 31 3 0 20 27 36 60 29 59 29 60 -19 48 -26 -7 -48 -6 -48 2 0 25
108 100 148 102 21 2 56 27 77 55 37 51 92 77 63 30 -10 -17 -4 -19 24 -7 47
21 121 21 188 -1 45 -14 47 -13 23 18 -24 28 -23 33 4 33 17 0 41 18 53 40 19
35 3 56 -23 30z"/>
<path d="M4400 3710 c-14 -16 -35 -30 -47 -31 -13 0 -41 -14 -63 -31 -38 -29
-37 -30 20 -17 60 14 179 109 137 109 -12 0 -33 -13 -47 -30z"/>
<path d="M3673 3706 c-8 -7 -52 -14 -98 -15 -59 -1 -86 -10 -90 -31 -9 -48
169 -28 196 22 21 39 17 49 -8 24z"/>
<path d="M1707 3644 c40 -45 27 -94 -20 -76 -16 7 -24 4 -18 -6 6 -10 44 -23
86 -31 41 -7 89 -17 107 -22 19 -6 31 3 31 21 0 16 -16 30 -36 30 -20 0 -37 8
-37 18 0 9 -18 22 -41 28 -22 6 -38 22 -35 36 3 14 -12 29 -34 34 -39 8 -39 8
-3 -32z"/>
<path d="M1942 3495 c-2 -72 -26 -97 -52 -55 -23 38 -75 22 -64 -19 6 -25 -2
-42 -23 -48 -18 -4 4 -9 50 -11 56 -1 86 7 94 28 7 18 24 24 46 16 27 -10 31
-5 20 23 -7 20 -3 48 9 64 18 21 14 27 -18 27 -22 0 -45 11 -51 25 -5 14 -11
-9 -11 -50z"/>
<path d="M1315 3479 c-46 -27 49 -144 102 -124 29 11 30 8 5 -22 -31 -38 -3
-88 36 -64 30 18 28 85 -3 105 -14 9 -38 41 -53 71 -32 61 -37 63 -87 34z"/>
<path d="M3530 3452 c-9 -21 -64 -87 -123 -147 -58 -61 -111 -126 -117 -145
-6 -20 -30 -41 -53 -47 -39 -10 -40 -13 -10 -43 18 -18 33 -41 33 -51 0 -11
10 -19 22 -19 12 0 18 12 12 26 -13 34 47 105 104 123 33 11 43 26 35 55 -7
28 15 65 78 128 48 48 80 88 70 88 -10 0 -22 16 -26 35 -8 32 -10 32 -25 -3z"/>
<path d="M3845 3420 c-14 -22 -25 -52 -25 -68 0 -16 -18 -35 -40 -42 -22 -7
-40 -21 -40 -31 0 -11 -15 -19 -33 -19 -19 0 -28 -6 -21 -12 7 -7 28 -6 48 3
20 9 45 18 56 20 64 11 154 58 171 91 24 45 -5 51 -41 8 -36 -43 -65 -37 -41
9 42 78 12 115 -34 41z"/>
<path d="M4354 3340 c-28 -22 -80 -46 -115 -53 -59 -12 -62 -15 -29 -39 33
-25 32 -28 -18 -51 -47 -21 -50 -27 -21 -43 21 -11 39 -11 46 0 7 10 40 29 73
43 115 48 228 183 153 183 -21 0 -61 -18 -89 -40z"/>
<path d="M890 3293 c-72 -28 -88 -94 -36 -150 68 -75 86 -101 86 -125 0 -37
27 -2 34 44 3 23 -2 35 -14 28 -11 -7 -20 -3 -20 9 0 11 12 21 27 21 15 0 43
18 63 40 20 22 50 40 66 40 26 0 25 -5 -3 -37 -41 -45 -43 -83 -4 -83 39 0 56
-33 41 -80 -8 -26 -30 -40 -61 -40 -56 0 -60 -16 -22 -106 53 -126 199 -234
225 -166 6 16 33 34 59 41 57 14 64 60 15 88 -26 14 -29 26 -12 46 30 38 -16
205 -75 268 -36 39 -39 49 -14 49 17 0 36 -11 42 -25 6 -16 10 -13 11 8 6 116
-238 194 -408 130z"/>
<path d="M4508 3289 c29 -29 36 -29 76 0 44 30 44 31 -31 31 -69 0 -73 -3 -45
-31z"/>
<path d="M3948 3136 c-32 -24 -61 -46 -65 -49 -4 -3 5 -18 21 -34 40 -40 84
-10 67 44 -11 34 -3 44 43 54 90 20 99 26 44 27 -29 1 -79 -18 -110 -42z"/>
<path d="M4074 3014 c-53 -25 -90 -52 -82 -60 8 -8 -7 -14 -34 -15 -42 0 -44
-3 -13 -21 19 -11 43 -15 53 -9 10 6 22 2 26 -10 4 -14 23 -15 56 -2 43 16 45
21 15 33 -51 21 -43 50 13 50 31 0 51 14 58 40 6 22 9 40 7 39 -2 0 -46 -21
-99 -45z"/>
<path d="M930 2799 c13 -199 116 -282 275 -221 79 30 68 52 -27 55 -111 3
-179 71 -193 193 -18 161 -66 137 -55 -27z"/>
<path d="M1734 2879 c7 -26 -2 -51 -26 -68 -31 -23 -32 -32 -10 -59 30 -36 70
-22 54 19 -6 16 1 39 15 53 37 37 40 59 10 78 -43 27 -54 21 -43 -23z"/>
<path d="M3789 2831 c-35 -25 -28 -28 76 -25 126 2 150 22 53 42 -84 16 -85
16 -129 -17z"/>
<path d="M2920 2799 c0 -27 53 -46 81 -28 17 10 16 19 -4 31 -37 24 -77 22
-77 -3z"/>
<path d="M2685 2764 c-36 -4 -65 -13 -65 -22 0 -25 94 -68 123 -56 19 7 16 11
-8 12 -39 2 -49 42 -10 42 14 -1 59 -9 100 -18 75 -18 87 -11 60 30 -15 21
-69 25 -200 12z"/>
<path d="M3007 2732 c8 -21 -15 -32 -88 -42 -55 -8 -99 -17 -99 -20 0 -32 30
-70 55 -70 24 0 25 -6 5 -30 -14 -16 -37 -30 -52 -30 -38 0 -35 -25 7 -61 37
-31 111 -39 137 -14 8 8 46 15 84 15 65 0 68 3 41 35 -35 41 -26 105 14 105
33 0 39 32 9 50 -11 7 -20 2 -20 -10 0 -12 -9 -17 -20 -10 -11 7 -20 4 -20 -7
0 -26 -54 -44 -90 -30 -30 11 -43 50 -15 44 8 -2 40 7 71 20 31 13 67 23 80
23 13 0 -2 14 -33 30 -71 37 -80 37 -66 2z m-11 -189 c37 -23 -19 -68 -64 -51
-26 10 -28 19 -10 40 26 32 38 34 74 11z"/>
<path d="M3660 2720 c45 -35 120 -54 120 -30 0 10 -136 70 -157 70 -7 -1 10
-18 37 -40z"/>
<path d="M2491 2659 c7 -12 26 -17 42 -11 16 7 24 3 18 -7 -25 -40 34 -43 71
-3 l40 42 -92 0 c-61 0 -88 -7 -79 -21z"/>
<path d="M2695 2648 c-7 -7 -7 -25 -1 -40 6 -17 -3 -28 -22 -28 -70 0 -26 -30
48 -33 91 -3 91 -3 48 64 -33 49 -51 59 -73 37z"/>
<path d="M3425 2616 c-36 -22 -60 -48 -54 -58 15 -24 69 -23 69 2 0 11 18 20
40 20 27 0 40 13 40 40 0 49 -11 48 -95 -4z"/>
<path d="M4110 2629 c-47 -21 -51 -27 -20 -28 33 -1 28 -9 -25 -43 -36 -23
-65 -49 -65 -59 0 -9 -36 -32 -80 -51 -47 -21 -71 -41 -57 -50 25 -15 -8 -28
-128 -49 -41 -7 -75 -22 -75 -34 0 -12 22 -14 55 -5 30 8 118 21 195 29 104
11 128 19 95 30 -68 24 -2 91 89 91 14 0 26 13 26 28 0 15 25 34 55 42 48 13
50 16 17 29 -34 12 -33 17 20 57 l58 43 -50 -1 c-27 -1 -77 -14 -110 -29z"/>
<path d="M3155 2602 c-9 -34 -4 -36 47 -18 70 24 76 56 10 56 -30 0 -51 -14
-57 -38z"/>
<path d="M2442 2579 c-26 -22 -44 -42 -40 -45 75 -42 104 -54 136 -54 21 0 43
-11 48 -25 5 -14 16 -18 24 -10 24 22 -28 73 -98 95 l-62 19 65 -6 c74 -7 80
1 30 39 -45 34 -46 34 -103 -13z"/>
<path d="M3180 2520 c0 -22 13 -40 29 -40 16 0 27 17 26 40 -2 22 -15 40 -29
40 -14 0 -26 -18 -26 -40z"/>
<path d="M2275 2490 c10 -52 34 -65 56 -29 9 15 20 15 38 0 33 -28 55 -4 25
28 -12 14 -39 21 -58 16 -20 -5 -36 0 -36 13 0 12 -8 22 -17 22 -10 0 -13 -22
-8 -50z"/>
<path d="M2700 2478 c0 -46 -9 -58 -45 -60 -30 -1 -35 -5 -15 -12 48 -18 100
-70 88 -89 -6 -9 4 -17 21 -17 29 0 29 5 1 47 -33 51 -23 73 33 73 21 0 37 9
37 20 0 11 -10 20 -21 20 -12 0 -17 7 -12 15 5 9 -12 26 -39 38 -45 22 -48 20
-48 -35z"/>
<path d="M3420 2501 c0 -11 14 -15 30 -8 17 6 44 1 59 -12 30 -25 71 -13 71
20 0 11 -36 19 -80 19 -44 0 -80 -9 -80 -19z"/>
<path d="M3080 2462 c-59 -17 85 -140 168 -144 31 -2 26 -7 -18 -18 -51 -13
-46 -15 30 -11 50 3 104 11 122 19 17 8 58 16 90 19 42 3 56 14 52 39 -4 24 8
34 40 35 31 1 18 11 -42 32 -48 16 -106 25 -129 19 -22 -5 -50 -3 -62 6 -12 8
-43 4 -71 -11 -56 -30 14 -40 189 -29 69 5 76 2 53 -25 -66 -80 -339 -54 -334
31 2 49 -18 57 -88 38z"/>
<path d="M4270 2441 c-22 -6 -40 -24 -40 -41 0 -19 -34 -39 -90 -53 l-90 -24
113 -1 c106 -2 178 31 143 65 -7 7 7 13 31 13 24 0 43 8 43 18 0 24 -61 37
-110 23z"/>
<path d="M2500 2360 c0 -11 11 -20 25 -20 17 -1 18 -5 4 -15 -31 -22 -51 -85
-27 -85 11 0 14 -10 7 -22 -10 -16 -19 -14 -30 4 -16 26 -80 -12 -123 -71 -8
-11 -21 -13 -30 -4 -9 9 0 25 20 36 52 29 26 51 -50 41 -106 -12 -181 -7 -203
15 -34 34 -56 24 -49 -23 4 -28 -9 -52 -34 -66 -22 -11 -61 -33 -87 -47 l-47
-26 46 -49 c54 -58 87 -63 59 -9 -29 54 -26 81 9 81 17 0 30 7 30 16 0 21 77
25 90 5 5 -10 28 -12 51 -7 26 7 51 -2 68 -26 23 -31 32 -32 59 -10 18 15 32
19 32 9 0 -9 9 -4 19 12 14 22 24 23 47 5 22 -19 47 -18 114 6 47 16 101 30
120 30 19 0 46 14 60 30 14 17 42 30 64 30 21 0 33 8 28 18 -6 9 -60 16 -119
15 -79 -2 -105 4 -98 22 10 27 12 28 81 35 70 7 73 25 6 40 -34 7 -67 21 -73
32 -15 24 -69 23 -69 -2z"/>
<path d="M2070 2340 c-20 -32 7 -57 49 -46 23 6 34 21 27 38 -12 32 -58 37
-76 8z"/>
<path d="M2965 2325 c-62 -11 -56 -42 10 -56 30 -7 65 -15 78 -19 33 -10 20
52 -15 68 -15 8 -48 11 -73 7z"/>
<path d="M3960 2283 c0 -11 8 -26 19 -32 16 -11 309 9 296 19 -21 19 -315 30
-315 13z"/>
<path d="M2764 2171 c-39 -22 -41 -28 -14 -38 74 -29 165 11 110 47 -36 23
-37 23 -96 -9z"/>
<path d="M3725 2146 c-69 -13 -54 -41 20 -37 157 8 177 12 165 31 -12 20 -98
23 -185 6z"/>
<path d="M4070 2141 c-37 -15 -36 -17 13 -30 68 -18 121 -8 132 24 9 28 -81
32 -145 6z"/>
<path d="M2846 2105 c-34 -23 -9 -49 99 -101 96 -47 116 -72 70 -91 -14 -5 -4
-11 21 -11 25 -1 50 -14 56 -29 5 -15 48 -39 94 -54 129 -40 449 -277 619
-457 83 -89 155 -155 160 -147 5 8 6 3 2 -11 -8 -34 102 -209 120 -190 8 8 10
0 3 -18 -20 -50 25 -63 51 -14 17 32 17 48 -2 65 -19 18 -22 16 -10 -7 7 -16
0 -13 -18 9 -17 21 -32 30 -32 20 -1 -11 -9 -1 -17 21 -11 27 -6 47 13 61 24
18 10 36 -73 100 -57 43 -99 89 -93 103 5 14 -3 38 -19 53 -15 16 -23 34 -16
41 7 6 -3 12 -21 12 -25 0 -31 12 -22 46 10 40 4 45 -45 43 -94 -4 -122 10
-111 56 8 28 4 37 -12 27 -13 -8 -50 7 -84 36 -34 28 -75 46 -95 41 -18 -6
-11 1 16 14 71 35 72 37 39 58 -25 16 -25 18 1 18 17 0 44 -8 60 -19 22 -14
23 -19 4 -20 -15 0 -21 -9 -14 -20 7 -11 30 -20 51 -20 22 0 39 9 39 20 0 50
161 21 181 -32 15 -40 27 -48 54 -35 19 9 78 15 130 15 78 -2 91 3 73 25 -13
15 -31 27 -41 27 -11 0 -57 19 -103 42 -293 145 -494 172 -494 66 0 -30 -12
-48 -31 -48 -17 0 -26 -9 -19 -20 18 -29 -89 -16 -114 14 -11 15 -36 26 -53
26 -20 0 -11 12 23 29 30 16 69 43 86 60 17 17 50 32 74 33 24 2 -14 15 -86
31 -332 71 -423 96 -416 118 8 24 -66 35 -98 14z"/>
<path d="M1275 1914 c-30 -12 -55 -33 -55 -47 0 -14 -27 -40 -60 -57 -63 -33
-77 -61 -35 -75 14 -5 -13 -32 -60 -62 -103 -65 -103 -65 -12 -65 40 0 62 4
49 8 -12 4 15 27 62 51 76 38 85 50 81 105 -3 48 7 68 45 88 37 20 78 92 45
78 -3 -1 -30 -12 -60 -24z"/>
<path d="M2770 1860 c-12 -19 2 -28 35 -22 8 1 15 -7 15 -17 0 -11 18 -29 40
-41 62 -33 48 11 -19 59 -36 26 -63 34 -71 21z"/>
<path d="M2060 1702 c0 -46 46 -68 78 -36 27 27 30 61 3 45 -10 -6 -24 -3 -31
9 -20 33 -50 23 -50 -18z"/>
<path d="M2316 1729 c-4 -3 -32 -10 -62 -14 -58 -8 -60 -16 -32 -91 20 -53 58
-41 58 17 0 56 26 48 67 -21 19 -33 42 -60 51 -60 27 0 61 138 37 153 -24 15
-109 27 -119 16z"/>
<path d="M4180 1625 c-27 -5 -65 -22 -84 -39 -18 -16 -43 -24 -55 -17 -11 7
-31 7 -42 0 -13 -8 1 -26 35 -43 72 -38 122 -48 135 -27 6 9 51 22 100 30 50
7 95 21 101 31 11 18 -93 83 -124 77 -9 -1 -38 -7 -66 -12z"/>
<path d="M3868 1515 c7 -14 18 -41 24 -60 12 -33 25 -38 111 -43 18 -1 40 -9
49 -17 21 -21 48 -19 48 5 0 11 -12 20 -27 20 -15 0 -37 22 -49 48 -16 36 -33
46 -63 38 -23 -6 -41 -1 -41 12 0 12 -14 22 -32 22 -18 0 -26 -11 -20 -25z"/>
<path d="M2612 1463 c-12 -19 61 -301 86 -331 12 -14 17 -30 12 -36 -6 -5 12
-79 40 -163 27 -85 50 -167 50 -182 0 -15 8 -31 18 -34 18 -7 30 -133 22 -237
-3 -45 -6 -43 -23 16 -26 90 -66 71 -73 -35 -8 -107 15 -134 71 -81 57 53 65
51 65 -19 0 -45 8 -57 30 -48 16 6 25 19 20 28 -6 9 -1 22 11 30 25 15 6 164
-25 203 -11 13 -13 35 -5 47 8 13 5 29 -5 36 -11 7 -34 93 -52 190 -23 127
-44 187 -74 213 -26 23 -34 41 -21 49 23 15 -7 89 -47 116 -16 11 -14 20 4 32
25 16 7 167 -25 198 -18 19 -70 24 -79 8z"/>
<path d="M2553 1145 c7 -54 3 -85 -11 -85 -12 0 -22 17 -22 38 0 20 -13 48
-30 62 -37 30 -39 4 -7 -74 13 -31 24 -69 25 -84 3 -43 52 -51 54 -9 4 60 41
-117 41 -193 -1 -67 0 -68 20 -20 21 51 -10 308 -43 350 -9 11 -21 38 -27 60
-6 22 -6 2 0 -45z"/>
<path d="M1981 1120 c-12 -27 -39 -79 -60 -114 -23 -38 -31 -70 -20 -76 10 -7
19 -2 19 10 0 27 49 14 184 -46 51 -24 90 -48 86 -54 -11 -17 26 -71 39 -57
21 21 -45 147 -110 207 -35 33 -76 87 -90 120 l-26 60 -22 -50z"/>
<path d="M2192 1068 c-14 -36 1 -68 31 -68 26 0 77 -51 77 -79 0 -11 14 -21
30 -21 17 0 30 -18 30 -43 0 -41 -2 -41 -37 -10 -40 37 -83 44 -83 13 0 -11 9
-20 20 -20 11 0 20 -13 20 -28 0 -19 18 -26 55 -22 30 3 62 -5 70 -17 10 -15
20 -6 28 23 8 29 23 42 40 35 46 -17 54 42 14 98 -20 28 -59 57 -87 64 -27 7
-75 34 -107 60 -66 55 -84 58 -101 15z"/>
<path d="M2669 928 c9 -21 26 -87 38 -148 15 -75 24 -95 29 -62 9 58 -33 218
-62 236 -14 8 -15 -1 -5 -26z"/>
<path d="M1838 735 c23 -62 82 -72 82 -13 0 25 -6 39 -13 32 -7 -7 -29 -4 -49
7 -33 18 -35 14 -20 -26z"/>
<path d="M2131 542 c-6 -11 2 -32 18 -48 35 -35 3 -76 -46 -61 -26 9 -27 7 -5
-9 54 -39 92 -14 94 63 2 70 -33 101 -61 55z"/>
</g>
</svg>
